<svg width="64" height="64" viewBox="0 0 32 64" fill="none" xmlns="http://www.w3.org/2000/svg">
<rect x="35.3613" y="29.8213" width="8.76481" height="1.0956" rx="0.5478" fill="white"/>
<path d="M47.2671 16C47.9659 16 48.5327 16.5668 48.5327 17.2656V27.8818C48.5327 28.5806 47.9659 29.1475 47.2671 29.1475H32.2681C31.5693 29.1474 31.0024 28.5806 31.0024 27.8818V17.2656C31.0024 16.5669 31.5693 16.0001 32.2681 16H47.2671ZM45.5786 18.8701C45.3487 18.6737 45.0037 18.7009 44.8071 18.9307L40.9478 23.4453L38.6899 21.5234C38.23 21.1326 37.5404 21.1878 37.1479 21.6465L33.8511 25.5039C33.6545 25.7339 33.6817 26.0798 33.9116 26.2764C34.1415 26.4725 34.4866 26.4454 34.6831 26.2158L37.98 22.3584L40.2378 24.2793C40.6978 24.6707 41.3882 24.6162 41.7808 24.1572L45.6392 19.6416C45.8355 19.4116 45.8085 19.0666 45.5786 18.8701Z" fill="white"/>
</svg>
